<svg id="svg" version="1.1" xmlns="http://www.w3.org/2000/svg" xmlns:xlink="http://www.w3.org/1999/xlink" width="400" height="400" viewBox="0, 0, 400,400"><g id="svgg"><path id="path0" d="M198.000 1.224 C 198.000 1.897,197.840 2.349,197.645 2.228 C 197.315 2.024,196.080 3.156,196.300 3.461 C 196.727 4.054,196.315 5.253,195.758 5.039 C 195.219 4.833,195.140 5.054,195.269 6.405 C 195.381 7.575,195.286 7.965,194.924 7.826 C 194.367 7.612,193.882 8.220,193.706 9.354 C 193.621 9.900,193.733 10.010,194.113 9.754 C 194.402 9.559,194.314 9.699,193.919 10.064 C 193.523 10.429,193.200 10.935,193.200 11.188 C 193.200 11.440,192.996 11.521,192.746 11.367 C 192.432 11.173,192.349 11.473,192.477 12.343 C 192.578 13.034,192.502 13.600,192.307 13.600 C 192.112 13.600,192.054 13.763,192.177 13.963 C 192.300 14.162,192.033 14.229,191.584 14.112 C 191.134 13.994,190.795 14.056,190.830 14.249 C 191.033 15.353,190.726 16.400,190.200 16.400 C 189.870 16.400,189.621 16.535,189.647 16.700 C 189.851 17.992,189.501 19.177,188.855 19.383 C 188.389 19.530,188.136 19.953,188.178 20.509 C 188.259 21.569,187.667 22.489,187.121 22.151 C 186.887 22.007,186.779 22.560,186.850 23.538 C 186.915 24.434,186.840 25.294,186.684 25.450 C 186.528 25.606,186.400 25.523,186.400 25.267 C 186.400 25.010,186.130 24.800,185.800 24.800 C 185.385 24.800,185.200 25.217,185.200 26.157 C 185.200 26.995,184.970 27.603,184.600 27.745 C 184.197 27.899,183.998 28.538,183.994 29.687 C 183.990 30.819,183.869 31.213,183.639 30.849 C 183.078 29.964,182.400 30.729,182.400 32.247 C 182.400 33.029,182.232 33.544,182.020 33.412 C 181.538 33.115,180.868 34.376,181.017 35.300 C 181.079 35.685,180.895 36.000,180.608 36.000 C 180.034 36.000,179.437 37.812,179.811 38.418 C 179.941 38.628,179.677 38.800,179.224 38.800 C 178.361 38.800,178.248 39.075,178.348 40.926 C 178.387 41.667,178.255 41.957,177.959 41.775 C 177.373 41.413,176.814 42.325,176.806 43.656 C 176.802 44.411,176.602 44.695,176.104 44.656 C 175.550 44.611,175.433 44.867,175.534 45.900 C 175.632 46.906,175.507 47.200,174.981 47.200 C 174.418 47.200,174.389 47.304,174.808 47.809 C 175.234 48.323,175.202 48.376,174.602 48.145 C 173.994 47.912,173.917 48.054,174.073 49.119 C 174.230 50.187,174.139 50.353,173.433 50.283 C 172.713 50.210,172.616 50.413,172.652 51.905 C 172.683 53.195,172.576 53.512,172.210 53.208 C 171.591 52.694,171.200 53.091,171.200 54.234 C 171.200 55.688,170.757 56.575,170.350 55.934 C 169.990 55.366,169.843 56.130,169.979 57.859 C 170.027 58.465,169.833 58.701,169.323 58.659 C 168.784 58.615,168.568 58.931,168.475 59.899 C 168.397 60.703,168.042 61.363,167.544 61.630 C 167.077 61.880,166.832 62.306,166.961 62.642 C 167.083 62.961,166.827 63.527,166.392 63.900 C 165.956 64.273,165.600 65.071,165.600 65.675 C 165.600 66.361,165.302 66.932,164.804 67.198 C 164.366 67.432,164.027 67.754,164.051 67.912 C 164.242 69.175,163.942 69.953,163.352 69.726 C 162.805 69.516,162.729 69.737,162.864 71.148 C 162.980 72.365,162.888 72.766,162.524 72.626 C 161.964 72.411,161.493 73.007,161.280 74.200 C 161.201 74.640,161.096 75.220,161.047 75.488 C 160.997 75.757,160.802 76.117,160.614 76.288 C 160.426 76.460,160.394 76.387,160.542 76.128 C 160.691 75.868,160.609 75.529,160.359 75.375 C 160.041 75.178,159.952 75.578,160.060 76.714 C 160.145 77.604,160.076 78.247,159.907 78.143 C 159.738 78.038,159.600 78.143,159.600 78.376 C 159.600 78.609,159.368 78.800,159.085 78.800 C 158.802 78.800,158.543 79.164,158.509 79.609 C 158.470 80.132,158.616 80.319,158.924 80.140 C 159.186 79.987,159.061 80.249,158.647 80.722 C 158.232 81.194,157.733 81.482,157.537 81.361 C 157.341 81.240,157.206 81.289,157.237 81.470 C 157.464 82.775,157.108 83.975,156.431 84.190 C 155.850 84.375,155.699 84.722,155.812 85.617 C 155.952 86.718,155.669 87.015,154.657 86.833 C 154.468 86.799,154.382 87.491,154.466 88.370 C 154.611 89.889,154.570 89.957,153.651 89.727 C 152.775 89.507,152.704 89.586,152.893 90.573 C 153.035 91.315,152.868 91.878,152.369 92.343 C 151.962 92.722,151.592 93.698,151.535 94.541 C 151.479 95.374,151.286 96.147,151.106 96.258 C 150.927 96.369,150.830 96.311,150.890 96.130 C 150.951 95.948,150.820 95.800,150.600 95.800 C 150.380 95.800,150.173 96.160,150.139 96.600 C 150.106 97.040,150.061 97.625,150.039 97.900 C 150.018 98.175,149.779 98.355,149.509 98.300 C 149.240 98.245,148.957 98.650,148.881 99.200 C 148.805 99.750,148.461 100.418,148.115 100.686 C 147.769 100.953,147.467 101.717,147.443 102.385 C 147.412 103.257,147.203 103.598,146.700 103.599 C 145.985 103.600,145.858 103.912,145.925 105.500 C 145.947 106.038,145.728 106.400,145.381 106.400 C 145.062 106.400,144.800 106.565,144.800 106.767 C 144.800 106.969,144.679 107.449,144.532 107.833 C 144.342 108.328,144.409 108.442,144.762 108.224 C 145.157 107.979,145.158 108.078,144.768 108.703 C 144.497 109.136,143.989 109.470,143.638 109.445 C 143.162 109.411,143.019 109.729,143.076 110.700 C 143.130 111.644,142.980 112.000,142.527 112.000 C 142.013 112.000,141.992 112.108,142.408 112.609 C 142.835 113.124,142.802 113.176,142.193 112.942 C 141.566 112.701,141.506 112.828,141.725 113.926 C 141.951 115.053,141.883 115.177,141.092 115.093 C 140.330 115.013,140.207 115.195,140.204 116.398 C 140.201 117.372,140.018 117.797,139.600 117.798 C 139.197 117.799,138.960 118.287,138.877 119.279 C 138.786 120.374,138.605 120.700,138.177 120.536 C 137.610 120.318,137.516 120.610,137.494 122.646 C 137.489 123.164,137.242 123.474,136.858 123.446 C 136.513 123.421,136.172 123.760,136.100 124.200 C 135.710 126.585,135.549 126.965,135.179 126.379 C 134.807 125.791,134.773 125.860,134.601 127.555 C 134.548 128.080,134.211 128.674,133.852 128.875 C 133.453 129.098,133.200 129.757,133.200 130.573 C 133.200 131.549,132.995 131.960,132.437 132.106 C 131.875 132.253,131.695 132.620,131.756 133.495 C 131.815 134.352,131.665 134.672,131.219 134.642 C 130.760 134.611,130.589 135.026,130.556 136.247 C 130.506 138.132,130.198 138.800,129.376 138.800 C 129.057 138.800,128.800 139.176,128.800 139.643 C 128.800 140.252,128.622 140.417,128.158 140.239 C 127.620 140.033,127.540 140.254,127.668 141.596 C 127.793 142.905,127.695 143.200,127.134 143.200 C 126.756 143.200,126.318 143.408,126.161 143.663 C 125.965 143.980,126.147 144.055,126.738 143.900 C 127.213 143.776,127.500 143.838,127.377 144.037 C 127.254 144.237,126.886 144.400,126.559 144.400 C 126.232 144.400,125.994 144.625,126.030 144.900 C 126.222 146.381,126.004 146.901,125.400 146.400 C 124.885 145.973,124.800 146.113,124.800 147.394 C 124.800 148.578,124.672 148.836,124.179 148.647 C 123.823 148.511,123.663 148.578,123.803 148.805 C 123.937 149.022,123.857 149.200,123.624 149.200 C 123.391 149.200,123.200 149.470,123.200 149.800 C 123.200 150.130,123.386 150.400,123.614 150.400 C 123.890 150.400,123.879 150.678,123.583 151.231 C 123.339 151.688,122.893 151.968,122.592 151.852 C 122.202 151.703,122.011 152.066,121.923 153.121 C 121.830 154.243,121.631 154.587,121.100 154.544 C 120.541 154.500,120.400 154.811,120.400 156.087 C 120.400 157.344,120.272 157.636,119.800 157.455 C 119.340 157.279,119.200 157.538,119.200 158.566 C 119.200 159.596,119.003 159.958,118.351 160.129 C 117.668 160.307,117.536 160.585,117.678 161.548 C 117.811 162.459,117.680 162.790,117.127 162.935 C 116.630 163.065,116.400 163.502,116.400 164.316 C 116.400 165.142,116.171 165.566,115.652 165.702 C 115.102 165.846,114.911 166.254,114.927 167.249 C 114.941 168.070,114.768 168.562,114.487 168.504 C 114.232 168.451,113.832 168.766,113.598 169.204 C 113.321 169.720,113.313 170.000,113.573 170.000 C 114.260 170.000,113.588 171.110,112.772 171.323 C 112.219 171.468,112.000 171.876,112.000 172.763 C 112.000 173.554,111.799 174.000,111.443 174.000 C 110.776 174.000,110.281 175.079,110.800 175.400 C 111.357 175.745,110.840 176.696,109.972 176.923 C 109.385 177.077,109.200 177.479,109.200 178.605 C 109.200 179.711,109.058 180.031,108.639 179.870 C 107.809 179.552,107.604 179.958,108.029 181.078 C 108.347 181.913,108.278 182.107,107.604 182.283 C 106.776 182.500,106.685 182.696,106.632 184.398 C 106.609 185.118,106.377 185.396,105.800 185.398 C 105.137 185.400,105.007 185.654,105.039 186.880 C 105.061 187.694,104.971 188.347,104.839 188.332 C 103.971 188.234,103.559 188.493,103.621 189.100 C 103.771 190.580,103.591 191.171,103.052 190.964 C 102.328 190.687,101.862 191.952,102.434 192.641 C 102.783 193.061,102.652 193.285,101.841 193.654 C 101.025 194.026,100.800 194.415,100.800 195.452 C 100.800 196.447,100.655 196.719,100.217 196.551 C 99.531 196.288,98.994 197.919,99.373 199.115 C 99.528 199.605,99.359 200.090,98.909 200.444 C 98.262 200.951,98.249 200.938,98.757 200.290 C 99.360 199.522,99.132 198.947,98.403 199.398 C 98.155 199.551,97.983 200.064,98.021 200.538 C 98.138 202.024,98.023 202.301,97.200 202.516 C 96.610 202.670,96.400 203.062,96.400 204.005 C 96.400 205.006,96.262 205.233,95.770 205.044 C 95.282 204.857,95.156 205.050,95.212 205.901 C 95.320 207.534,95.171 208.685,94.930 208.083 C 94.613 207.294,93.600 208.297,93.600 209.400 C 93.600 209.896,93.330 210.526,93.000 210.800 C 92.670 211.074,92.400 211.704,92.400 212.200 C 92.400 212.696,91.995 213.401,91.500 213.767 C 90.903 214.207,90.763 214.502,91.086 214.644 C 91.702 214.914,90.871 216.400,90.104 216.400 C 89.770 216.400,89.598 217.042,89.594 218.300 C 89.590 219.538,89.466 220.008,89.239 219.649 C 88.850 219.035,87.946 219.397,88.037 220.130 C 88.210 221.535,87.964 222.361,87.432 222.157 C 87.015 221.997,86.894 222.219,86.979 222.993 C 87.099 224.086,86.201 225.371,85.584 224.990 C 85.390 224.870,85.282 225.409,85.343 226.186 C 85.433 227.327,85.314 227.600,84.727 227.600 C 84.163 227.600,84.000 227.913,84.000 229.000 C 84.000 230.123,83.845 230.400,83.217 230.400 C 82.568 230.400,82.453 230.639,82.544 231.800 C 82.633 232.927,82.512 233.200,81.927 233.200 C 81.243 233.200,81.086 233.594,81.093 235.300 C 81.095 235.728,80.793 236.000,80.317 236.000 C 79.672 236.000,79.559 236.238,79.659 237.391 C 79.728 238.196,79.548 238.996,79.230 239.291 C 78.808 239.683,78.747 239.685,78.965 239.300 C 79.120 239.025,79.076 238.800,78.866 238.800 C 78.345 238.800,78.131 239.556,78.215 241.102 C 78.268 242.073,78.164 242.302,77.806 242.005 C 77.170 241.477,76.801 241.900,76.794 243.167 C 76.788 244.230,76.018 245.900,76.006 244.876 C 76.003 244.588,75.837 244.454,75.638 244.577 C 75.438 244.700,75.369 245.161,75.484 245.600 C 75.626 246.144,75.496 246.400,75.078 246.400 C 74.537 246.400,74.166 247.280,73.757 249.537 C 73.704 249.832,73.528 250.192,73.366 250.337 C 73.205 250.481,73.192 250.240,73.337 249.800 C 73.590 249.035,73.577 249.032,73.031 249.736 C 72.717 250.140,72.526 250.815,72.607 251.236 C 72.692 251.680,72.530 252.000,72.220 252.000 C 71.592 252.000,71.200 252.868,71.200 254.256 C 71.200 254.816,71.026 255.140,70.799 255.000 C 70.339 254.715,69.479 256.680,69.821 257.234 C 69.945 257.435,69.747 257.600,69.381 257.600 C 68.953 257.600,68.797 257.815,68.945 258.200 C 69.071 258.530,69.001 258.800,68.787 258.800 C 68.574 258.800,68.400 259.070,68.400 259.400 C 68.400 259.730,68.040 260.360,67.600 260.800 C 67.160 261.240,66.800 261.960,66.800 262.400 C 66.800 262.840,66.628 263.200,66.418 263.200 C 66.208 263.200,65.920 263.818,65.779 264.572 C 65.637 265.327,65.286 266.035,64.998 266.145 C 64.711 266.256,64.354 266.898,64.206 267.573 C 64.058 268.248,63.785 268.800,63.600 268.800 C 63.415 268.800,63.136 269.382,62.979 270.094 C 62.823 270.806,62.404 271.629,62.048 271.924 C 61.568 272.320,61.556 272.382,62.000 272.161 C 62.445 271.940,62.419 272.069,61.900 272.663 C 61.515 273.103,61.200 273.652,61.200 273.883 C 61.200 274.113,60.930 274.526,60.600 274.800 C 60.270 275.074,60.000 275.707,60.000 276.206 C 60.000 276.706,59.719 277.222,59.375 277.354 C 59.031 277.486,58.854 277.763,58.981 277.970 C 59.109 278.176,59.018 278.465,58.779 278.613 C 58.541 278.760,58.430 279.101,58.533 279.369 C 58.636 279.638,58.378 280.071,57.960 280.332 C 57.542 280.593,57.200 281.236,57.200 281.761 C 57.200 282.285,56.910 282.826,56.555 282.962 C 56.145 283.119,55.985 283.500,56.117 284.005 C 56.249 284.511,56.168 284.704,55.895 284.535 C 55.633 284.373,55.553 284.501,55.692 284.863 C 55.822 285.202,55.594 285.661,55.160 285.932 C 54.742 286.193,54.400 286.765,54.400 287.203 C 54.400 287.642,54.040 288.360,53.600 288.800 C 53.160 289.240,52.800 289.938,52.800 290.351 C 52.800 290.764,52.530 291.326,52.200 291.600 C 51.470 292.206,51.420 293.067,52.100 293.319 C 52.382 293.424,52.126 293.694,51.511 293.938 C 50.826 294.211,50.324 294.785,50.157 295.486 C 50.012 296.099,49.633 296.900,49.315 297.266 C 48.998 297.632,48.797 298.350,48.869 298.861 C 48.956 299.478,48.798 299.793,48.400 299.796 C 48.070 299.798,47.620 300.358,47.399 301.039 C 47.179 301.721,46.778 302.545,46.507 302.871 C 46.237 303.196,45.960 303.829,45.892 304.276 C 45.824 304.723,45.451 305.406,45.064 305.793 C 44.677 306.180,44.415 306.781,44.482 307.129 C 44.549 307.476,44.209 308.154,43.728 308.636 C 43.155 309.209,42.928 309.804,43.073 310.356 C 43.226 310.944,43.107 311.200,42.678 311.200 C 42.170 311.200,41.544 312.628,41.423 314.067 C 41.410 314.213,41.236 314.483,41.036 314.667 C 40.822 314.863,40.793 314.753,40.966 314.400 C 41.127 314.070,40.989 314.131,40.659 314.536 C 40.330 314.940,40.126 315.615,40.207 316.036 C 40.292 316.480,40.130 316.800,39.820 316.800 C 39.200 316.800,38.800 317.666,38.800 319.009 C 38.800 319.528,38.592 320.081,38.338 320.238 C 38.029 320.429,37.982 320.338,38.197 319.962 C 38.444 319.529,38.403 319.505,38.019 319.860 C 37.745 320.113,37.493 320.788,37.460 321.360 C 37.427 321.939,37.160 322.400,36.857 322.400 C 36.539 322.400,36.410 322.648,36.545 323.000 C 36.671 323.330,36.601 323.600,36.387 323.600 C 36.174 323.600,36.000 323.870,36.000 324.200 C 36.000 324.530,35.640 325.160,35.200 325.600 C 34.760 326.040,34.400 326.760,34.400 327.200 C 34.400 327.640,34.201 328.000,33.957 328.000 C 33.714 328.000,33.618 328.270,33.745 328.600 C 33.871 328.930,33.801 329.200,33.587 329.200 C 33.374 329.200,33.200 329.541,33.200 329.957 C 33.200 330.374,32.947 330.812,32.638 330.930 C 32.328 331.049,31.954 331.698,31.806 332.373 C 31.658 333.048,31.379 333.600,31.186 333.600 C 30.994 333.600,30.720 334.218,30.579 334.972 C 30.437 335.727,30.086 336.435,29.798 336.545 C 29.511 336.656,29.157 337.286,29.012 337.945 C 28.867 338.605,28.490 339.359,28.174 339.621 C 27.858 339.883,27.600 340.461,27.600 340.905 C 27.600 341.349,27.285 341.970,26.900 342.286 C 26.484 342.626,26.444 342.738,26.800 342.561 C 27.200 342.362,27.145 342.553,26.636 343.134 C 26.215 343.613,25.989 344.123,26.133 344.267 C 26.277 344.410,26.036 344.780,25.597 345.087 C 25.159 345.394,24.800 345.995,24.800 346.423 C 24.800 346.850,24.423 347.577,23.963 348.037 C 23.503 348.497,23.208 349.189,23.309 349.574 C 23.414 349.977,23.175 350.473,22.746 350.741 C 22.336 350.997,22.000 351.565,22.000 352.003 C 22.000 352.442,21.640 353.160,21.200 353.600 C 20.760 354.040,20.400 354.738,20.400 355.151 C 20.400 355.564,20.130 356.126,19.800 356.400 C 19.470 356.674,19.200 357.236,19.200 357.649 C 19.200 358.062,18.840 358.760,18.400 359.200 C 17.960 359.640,17.600 360.338,17.600 360.751 C 17.600 361.164,17.321 361.734,16.980 362.017 C 16.635 362.303,16.413 362.990,16.480 363.564 C 16.562 364.267,16.409 364.597,16.000 364.598 C 15.670 364.599,15.220 365.158,14.999 365.839 C 14.779 366.521,14.391 367.331,14.137 367.639 C 13.884 367.948,13.614 368.552,13.538 368.983 C 13.462 369.413,13.085 370.088,12.700 370.483 C 12.315 370.877,12.000 371.538,12.000 371.951 C 12.000 372.364,11.732 372.924,11.404 373.196 C 11.077 373.468,10.907 373.850,11.028 374.045 C 11.149 374.240,11.046 374.400,10.800 374.400 C 10.554 374.400,10.473 374.594,10.619 374.831 C 10.765 375.067,10.506 375.614,10.043 376.046 C 9.579 376.478,9.178 377.184,9.150 377.616 C 9.066 378.931,9.013 379.121,8.636 379.467 C 8.422 379.663,8.393 379.553,8.566 379.200 C 8.727 378.870,8.589 378.931,8.259 379.336 C 7.930 379.740,7.726 380.415,7.807 380.836 C 7.892 381.280,7.730 381.600,7.420 381.600 C 7.127 381.600,6.763 382.095,6.612 382.700 C 6.461 383.305,6.082 384.084,5.770 384.430 C 5.458 384.777,5.163 385.542,5.114 386.130 C 5.064 386.734,4.783 387.200,4.470 387.200 C 4.140 387.200,4.008 387.444,4.145 387.800 C 4.271 388.130,4.201 388.400,3.987 388.400 C 3.774 388.400,3.600 388.695,3.600 389.056 C 3.600 389.417,3.307 389.926,2.950 390.187 C 2.592 390.449,2.300 391.143,2.300 391.731 C 2.300 392.409,2.083 392.800,1.707 392.800 C 1.345 392.800,1.204 393.033,1.345 393.400 C 1.471 393.730,1.379 394.000,1.138 394.000 C 0.861 394.000,0.897 394.255,1.238 394.700 C 1.533 395.085,1.623 395.274,1.439 395.119 C 0.737 394.529,-0.000 395.989,-0.000 397.971 L 0.000 400.000 200.000 400.000 L 400.000 400.000 400.000 397.833 C 400.000 396.474,399.814 395.591,399.500 395.465 C 399.100 395.304,399.100 395.257,399.500 395.232 C 400.143 395.191,400.153 394.118,399.513 393.904 C 399.223 393.808,399.067 393.149,399.126 392.271 C 399.200 391.174,399.069 390.800,398.613 390.800 C 398.199 390.800,398.000 390.411,398.000 389.600 C 398.000 388.526,397.812 388.318,396.945 388.434 C 396.446 388.501,396.115 387.518,396.248 386.367 C 396.345 385.542,396.211 385.200,395.792 385.200 C 395.397 385.200,395.200 384.789,395.200 383.963 C 395.200 383.062,394.983 382.668,394.400 382.516 C 393.837 382.369,393.600 381.970,393.600 381.173 C 393.600 380.550,393.322 379.884,392.982 379.694 C 392.642 379.503,392.323 378.819,392.275 378.174 C 392.211 377.332,391.954 376.967,391.365 376.882 C 390.708 376.787,390.577 376.535,390.712 375.621 C 390.839 374.755,390.692 374.420,390.107 374.234 C 389.611 374.077,389.361 373.668,389.408 373.094 C 389.509 371.856,389.215 371.200,388.557 371.200 C 388.187 371.200,388.000 370.730,388.000 369.800 C 388.000 368.822,387.819 368.400,387.400 368.400 C 387.070 368.400,386.779 368.175,386.754 367.900 C 386.728 367.625,386.666 367.220,386.615 367.000 C 386.564 366.780,386.494 366.375,386.461 366.100 C 386.427 365.825,386.130 365.600,385.800 365.600 C 385.381 365.600,385.200 365.178,385.200 364.200 C 385.200 363.222,385.019 362.800,384.600 362.800 C 384.270 362.800,383.979 362.575,383.954 362.300 C 383.928 362.025,383.866 361.620,383.815 361.400 C 383.764 361.180,383.694 360.775,383.661 360.500 C 383.627 360.225,383.330 360.000,383.000 360.000 C 382.581 360.000,382.400 359.578,382.400 358.600 C 382.400 357.467,382.248 357.200,381.600 357.200 C 380.952 357.200,380.800 356.933,380.800 355.800 C 380.800 354.822,380.619 354.400,380.200 354.400 C 379.781 354.400,379.600 353.978,379.600 353.000 C 379.600 351.867,379.448 351.600,378.800 351.600 C 378.152 351.600,378.000 351.333,378.000 350.200 L 378.000 348.800 230.700 348.746 C 149.685 348.716,83.805 348.613,84.300 348.518 C 85.025 348.378,85.200 348.077,85.200 346.972 C 85.200 346.067,85.389 345.600,85.757 345.600 C 86.358 345.600,86.975 343.806,86.589 343.182 C 86.459 342.972,86.723 342.800,87.176 342.800 C 87.851 342.800,88.000 342.547,88.000 341.400 C 88.000 340.442,88.184 340.000,88.582 340.000 C 88.930 340.000,89.269 339.438,89.426 338.600 C 89.577 337.798,89.926 337.200,90.245 337.200 C 90.613 337.200,90.800 336.728,90.800 335.800 C 90.800 334.857,90.985 334.400,91.368 334.400 C 91.999 334.400,92.498 332.659,92.239 331.367 C 92.137 330.860,92.278 330.533,92.598 330.533 C 92.887 330.533,93.032 330.773,92.919 331.067 C 92.807 331.360,92.914 331.600,93.157 331.600 C 93.401 331.600,93.600 330.970,93.600 330.200 C 93.600 329.181,93.775 328.800,94.243 328.800 C 94.659 328.800,94.802 328.582,94.647 328.179 C 94.494 327.780,94.571 327.658,94.863 327.839 C 95.173 328.031,95.252 327.785,95.113 327.059 C 94.953 326.220,95.066 326.000,95.655 326.000 C 96.240 326.000,96.400 325.699,96.400 324.600 C 96.400 323.670,96.587 323.200,96.957 323.200 C 97.569 323.200,98.000 322.359,98.000 321.167 C 98.000 320.745,98.270 320.400,98.600 320.400 C 99.015 320.400,99.200 319.983,99.200 319.047 C 99.200 318.030,99.399 317.641,100.000 317.484 C 100.574 317.334,100.800 316.938,100.800 316.086 C 100.800 315.433,101.070 314.674,101.400 314.400 C 101.730 314.126,102.000 313.495,102.000 312.998 C 102.000 312.430,102.298 312.015,102.800 311.884 C 103.416 311.723,103.600 311.338,103.600 310.214 C 103.600 309.410,103.761 308.852,103.958 308.974 C 104.361 309.223,104.800 308.304,104.800 307.214 C 104.800 306.818,105.175 306.395,105.633 306.276 C 106.330 306.093,106.446 305.795,106.349 304.446 C 106.285 303.559,106.375 302.691,106.550 302.517 C 106.724 302.343,106.807 302.380,106.733 302.600 C 106.660 302.820,106.780 303.090,107.000 303.200 C 107.220 303.310,107.456 302.824,107.524 302.119 C 107.607 301.262,107.910 300.756,108.441 300.587 C 109.090 300.381,109.206 300.057,109.079 298.791 C 108.994 297.941,109.094 297.010,109.300 296.723 C 109.577 296.338,109.617 296.381,109.455 296.887 C 109.334 297.265,109.388 297.669,109.576 297.785 C 109.966 298.026,110.400 297.084,110.400 295.994 C 110.400 295.587,110.760 295.140,111.200 295.000 C 111.681 294.847,111.998 294.398,111.994 293.873 C 111.989 293.163,111.915 293.112,111.600 293.600 C 111.387 293.930,111.209 294.006,111.206 293.770 C 111.203 293.533,111.650 292.917,112.200 292.400 C 112.750 291.883,113.200 291.025,113.200 290.493 C 113.200 289.858,113.478 289.452,114.008 289.314 C 114.687 289.136,114.735 289.001,114.308 288.474 C 113.913 287.986,113.911 287.913,114.300 288.147 C 114.648 288.356,114.800 288.136,114.800 287.424 C 114.800 286.780,115.023 286.400,115.400 286.400 C 115.801 286.400,116.000 285.999,116.000 285.187 C 116.000 284.352,116.242 283.885,116.776 283.687 C 117.203 283.529,117.563 283.265,117.576 283.100 C 117.589 282.935,117.600 282.350,117.600 281.800 C 117.600 281.178,117.827 280.800,118.200 280.800 C 118.736 280.800,118.965 280.053,118.907 278.500 C 118.897 278.225,119.229 278.000,119.644 278.000 C 120.060 278.000,120.379 277.865,120.353 277.700 C 120.160 276.479,120.482 275.200,120.982 275.200 C 121.330 275.200,121.669 274.638,121.826 273.800 C 121.977 272.998,122.326 272.400,122.645 272.400 C 123.013 272.400,123.200 271.928,123.200 271.000 C 123.200 269.981,123.375 269.600,123.843 269.600 C 124.250 269.600,124.401 269.380,124.255 269.000 C 124.129 268.670,124.199 268.400,124.413 268.400 C 124.626 268.400,124.800 268.040,124.800 267.600 C 124.800 267.156,125.067 266.800,125.400 266.800 C 125.819 266.800,126.000 266.378,126.000 265.400 C 126.000 264.381,126.175 264.000,126.643 264.000 C 127.059 264.000,127.202 263.782,127.047 263.379 C 126.911 263.023,126.978 262.863,127.205 263.003 C 127.426 263.140,127.600 262.796,127.600 262.224 C 127.600 261.580,127.823 261.200,128.200 261.200 C 128.619 261.200,128.800 260.778,128.800 259.800 C 128.800 258.870,128.987 258.400,129.357 258.400 C 129.969 258.400,130.400 257.559,130.400 256.367 C 130.400 255.929,130.676 255.600,131.044 255.600 C 131.542 255.600,131.651 255.288,131.526 254.217 C 131.392 253.065,131.501 252.815,132.182 252.717 C 132.777 252.632,133.058 252.217,133.213 251.200 C 133.335 250.395,133.633 249.842,133.913 249.900 C 134.219 249.963,134.400 249.498,134.400 248.647 C 134.400 247.630,134.599 247.241,135.200 247.084 C 135.775 246.934,136.000 246.538,136.000 245.680 C 136.000 244.987,136.252 244.389,136.600 244.255 C 136.943 244.124,137.200 243.527,137.200 242.859 C 137.200 242.030,137.431 241.633,138.000 241.484 C 138.613 241.324,138.800 240.938,138.800 239.837 C 138.800 238.901,138.974 238.435,139.300 238.500 C 139.597 238.559,139.850 238.088,139.922 237.341 C 140.007 236.473,140.297 236.016,140.855 235.870 C 141.503 235.700,141.639 235.390,141.533 234.329 C 141.436 233.357,141.560 233.001,142.000 233.001 C 142.365 233.000,142.652 232.545,142.732 231.839 C 142.870 230.630,143.723 229.457,144.152 229.886 C 144.289 230.022,144.400 229.558,144.400 228.854 C 144.400 228.065,144.639 227.483,145.023 227.336 C 145.366 227.204,145.569 226.895,145.476 226.648 C 145.192 225.901,145.934 224.400,146.587 224.400 C 147.035 224.400,147.200 223.972,147.200 222.813 C 147.200 221.493,147.313 221.268,147.869 221.482 C 148.342 221.663,148.475 221.572,148.322 221.169 C 148.000 220.323,148.684 218.800,149.387 218.800 C 149.835 218.800,150.000 218.371,150.000 217.200 C 150.000 216.133,150.167 215.633,150.500 215.700 C 150.775 215.755,150.955 215.575,150.900 215.300 C 150.845 215.025,151.001 214.800,151.247 214.800 C 151.496 214.800,151.601 214.447,151.484 214.000 C 151.331 213.414,151.472 213.200,152.011 213.200 C 152.574 213.200,152.738 212.910,152.711 211.962 C 152.692 211.281,152.929 210.568,153.238 210.376 C 153.547 210.185,153.824 209.888,153.854 209.715 C 154.055 208.538,154.572 207.600,155.020 207.600 C 155.351 207.600,155.533 207.135,155.511 206.351 C 155.490 205.599,155.727 204.961,156.106 204.748 C 156.454 204.554,156.856 203.856,157.001 203.198 C 157.145 202.539,157.507 202.000,157.805 202.000 C 158.149 202.000,158.334 201.556,158.312 200.781 C 158.288 199.959,158.558 199.365,159.139 198.958 C 159.621 198.620,160.000 197.924,160.000 197.377 C 160.000 196.758,160.229 196.400,160.625 196.400 C 160.981 196.400,161.220 196.098,161.179 195.700 C 161.033 194.264,161.216 193.600,161.757 193.600 C 162.369 193.600,162.800 192.759,162.800 191.567 C 162.800 191.145,163.070 190.800,163.400 190.800 C 163.730 190.800,164.000 190.519,164.000 190.176 C 164.000 189.833,163.837 189.654,163.637 189.777 C 163.438 189.900,163.483 189.560,163.737 189.021 C 163.992 188.482,164.491 187.965,164.848 187.872 C 165.245 187.768,165.468 187.334,165.425 186.751 C 165.341 185.626,165.923 184.705,166.495 185.059 C 166.750 185.217,166.838 184.777,166.732 183.872 C 166.591 182.662,166.694 182.416,167.382 182.317 C 167.832 182.253,168.222 181.975,168.250 181.700 C 168.278 181.425,168.322 180.840,168.350 180.400 C 168.378 179.960,168.670 179.600,169.000 179.600 C 169.415 179.600,169.600 179.183,169.600 178.247 C 169.600 177.204,169.795 176.842,170.449 176.671 C 171.132 176.493,171.264 176.215,171.122 175.252 C 170.985 174.318,171.117 174.010,171.722 173.852 C 172.329 173.693,172.459 173.387,172.321 172.443 C 172.176 171.458,172.296 171.215,172.972 171.118 C 173.561 171.034,173.839 170.653,173.935 169.800 C 174.009 169.140,174.324 168.456,174.635 168.280 C 174.946 168.104,175.200 167.450,175.200 166.827 C 175.200 166.030,175.437 165.631,176.000 165.484 C 176.575 165.334,176.800 164.938,176.800 164.080 C 176.800 163.387,177.052 162.789,177.400 162.655 C 177.747 162.522,178.000 161.924,178.000 161.240 C 178.000 160.405,178.237 159.979,178.800 159.800 C 179.363 159.621,179.600 159.195,179.600 158.360 C 179.600 157.676,179.853 157.078,180.200 156.945 C 180.548 156.811,180.800 156.213,180.800 155.520 C 180.800 154.662,181.025 154.266,181.600 154.116 C 182.163 153.969,182.400 153.570,182.400 152.773 C 182.400 152.134,182.689 151.478,183.063 151.269 C 183.428 151.064,183.773 150.470,183.830 149.949 C 183.887 149.427,183.948 148.865,183.967 148.700 C 183.985 148.535,184.270 148.400,184.600 148.400 C 185.035 148.400,185.200 147.953,185.200 146.776 C 185.200 145.876,185.366 145.255,185.572 145.383 C 185.945 145.613,186.535 144.952,186.629 144.200 C 186.656 143.980,186.706 143.575,186.739 143.300 C 186.773 143.025,187.081 142.800,187.425 142.800 C 187.781 142.800,188.020 142.498,187.979 142.100 C 187.831 140.640,188.020 140.000,188.600 140.000 C 188.930 140.000,189.200 139.655,189.200 139.233 C 189.200 138.026,189.634 137.200,190.267 137.200 C 190.686 137.200,190.796 136.871,190.662 136.021 C 190.517 135.099,190.686 134.705,191.436 134.213 C 191.963 133.868,192.375 133.453,192.350 133.292 C 192.202 132.324,192.480 131.600,193.000 131.600 C 193.411 131.600,193.600 131.188,193.600 130.296 C 193.600 129.426,193.866 128.826,194.400 128.493 C 194.852 128.210,195.200 127.560,195.200 126.997 C 195.200 126.377,195.427 126.000,195.800 126.000 C 196.215 126.000,196.400 125.583,196.400 124.647 C 196.400 123.623,196.598 123.242,197.211 123.081 C 197.658 122.964,197.996 122.718,197.964 122.534 C 197.770 121.432,198.078 120.400,198.600 120.400 C 199.015 120.400,199.200 119.983,199.200 119.047 C 199.200 118.083,199.406 117.639,199.915 117.506 C 200.895 117.250,202.452 117.876,202.371 118.494 C 202.196 119.831,202.426 120.476,203.000 120.255 C 203.469 120.075,203.600 120.361,203.600 121.566 C 203.600 122.779,203.773 123.152,204.414 123.320 C 205.048 123.485,205.185 123.770,205.033 124.609 C 204.883 125.435,205.019 125.732,205.619 125.889 C 206.083 126.010,206.402 126.440,206.406 126.947 C 206.413 127.938,206.933 128.883,207.445 128.836 C 207.640 128.818,207.804 129.386,207.808 130.098 C 207.814 131.002,208.025 131.432,208.508 131.525 C 208.982 131.617,209.200 132.040,209.200 132.867 C 209.200 133.724,209.424 134.134,209.972 134.277 C 210.476 134.408,210.661 134.697,210.504 135.105 C 210.329 135.561,210.418 135.643,210.832 135.407 C 211.275 135.154,211.297 135.194,210.931 135.590 C 210.361 136.207,210.676 137.200,211.443 137.200 C 211.794 137.200,212.000 137.639,212.000 138.386 C 212.000 139.169,212.276 139.720,212.813 140.007 C 213.260 140.246,213.598 140.657,213.565 140.921 C 213.421 142.073,213.637 142.793,214.100 142.700 C 214.413 142.637,214.647 143.162,214.724 144.100 C 214.821 145.275,215.016 145.600,215.624 145.600 C 216.244 145.600,216.400 145.881,216.400 147.000 C 216.400 147.978,216.581 148.400,217.000 148.400 C 217.621 148.400,217.740 148.766,217.616 150.300 C 217.551 151.099,217.955 151.397,218.900 151.247 C 219.065 151.221,219.200 151.811,219.200 152.557 C 219.200 153.395,219.430 154.003,219.800 154.145 C 220.151 154.279,220.400 154.879,220.400 155.587 C 220.400 156.673,220.737 156.999,221.700 156.847 C 221.865 156.821,222.000 157.421,222.000 158.180 C 222.000 158.979,222.248 159.699,222.589 159.890 C 223.084 160.167,223.430 161.087,223.570 162.500 C 223.587 162.665,223.870 162.800,224.200 162.800 C 224.714 162.800,225.022 163.797,224.847 164.900 C 224.806 165.161,225.340 165.334,226.012 165.277 C 226.128 165.267,226.200 165.741,226.170 166.329 C 226.099 167.759,226.369 168.400,227.043 168.400 C 227.415 168.400,227.600 168.873,227.600 169.824 C 227.600 170.677,227.761 171.148,228.003 170.998 C 228.419 170.741,228.563 171.023,228.974 172.900 C 229.107 173.505,229.482 174.000,229.808 174.000 C 230.346 174.000,230.604 174.957,230.430 176.300 C 230.394 176.575,230.643 176.800,230.982 176.800 C 231.359 176.800,231.600 177.156,231.600 177.712 C 231.600 178.213,231.960 178.883,232.400 179.200 C 232.920 179.575,233.200 180.235,233.200 181.088 C 233.200 181.962,233.392 182.400,233.775 182.400 C 234.131 182.400,234.397 182.895,234.475 183.700 C 234.567 184.653,234.818 185.031,235.418 185.117 C 236.099 185.215,236.208 185.465,236.074 186.617 C 235.934 187.819,236.026 188.000,236.780 188.000 C 237.527 188.000,237.621 188.174,237.452 189.245 C 237.296 190.233,237.414 190.531,238.028 190.691 C 238.599 190.841,238.800 191.246,238.800 192.247 C 238.800 193.358,238.951 193.600,239.645 193.600 C 240.365 193.600,240.463 193.786,240.307 194.854 C 240.164 195.829,240.287 196.150,240.861 196.300 C 241.285 196.411,241.603 196.857,241.606 197.347 C 241.613 198.337,242.132 199.282,242.645 199.238 C 242.840 199.221,243.022 199.610,243.049 200.103 C 243.146 201.847,243.206 202.000,243.800 202.000 C 244.198 202.000,244.400 202.398,244.400 203.180 C 244.400 203.834,244.679 204.516,245.025 204.710 C 245.369 204.902,245.715 205.406,245.795 205.830 C 245.874 206.253,245.974 206.690,246.017 206.800 C 246.060 206.910,246.073 207.135,246.047 207.300 C 246.021 207.465,246.270 207.600,246.600 207.600 C 247.218 207.600,247.339 207.966,247.220 209.469 C 247.170 210.098,247.406 210.374,248.075 210.469 C 248.837 210.577,248.992 210.829,248.952 211.900 C 248.925 212.615,249.073 213.200,249.280 213.200 C 249.488 213.200,249.927 213.470,250.257 213.800 C 250.587 214.130,250.664 214.400,250.429 214.400 C 250.193 214.400,250.000 214.760,250.000 215.200 C 250.000 215.733,250.267 216.000,250.800 216.000 C 251.608 216.000,251.743 216.304,251.622 217.849 C 251.586 218.316,251.836 218.805,252.178 218.936 C 252.547 219.078,252.800 219.657,252.800 220.360 C 252.800 221.195,253.037 221.621,253.600 221.800 C 254.163 221.979,254.400 222.405,254.400 223.240 C 254.400 223.924,254.653 224.522,255.000 224.655 C 255.330 224.782,255.600 225.212,255.600 225.610 C 255.600 226.840,256.054 227.600,256.787 227.600 C 257.329 227.600,257.443 227.839,257.288 228.652 C 257.151 229.368,257.297 229.823,257.743 230.072 C 258.105 230.274,258.403 230.836,258.406 231.320 C 258.414 232.518,259.005 233.361,259.660 233.109 C 260.058 232.956,260.192 233.303,260.169 234.432 C 260.152 235.273,260.288 235.869,260.472 235.756 C 260.820 235.540,260.973 235.869,261.374 237.700 C 261.527 238.398,261.876 238.800,262.327 238.800 C 262.911 238.800,263.009 239.063,262.870 240.255 C 262.751 241.269,262.837 241.624,263.153 241.429 C 263.618 241.142,263.757 241.397,264.174 243.300 C 264.307 243.905,264.682 244.400,265.008 244.400 C 265.418 244.400,265.600 244.830,265.600 245.800 C 265.600 246.750,265.785 247.200,266.175 247.200 C 266.531 247.200,266.797 247.695,266.875 248.500 C 266.972 249.507,267.183 249.795,267.811 249.778 C 268.499 249.759,268.597 249.960,268.464 251.103 C 268.336 252.197,268.461 252.491,269.126 252.665 C 269.918 252.872,270.703 254.000,270.054 254.000 C 269.399 254.000,269.760 255.317,270.467 255.502 C 270.971 255.633,271.200 256.066,271.200 256.884 C 271.200 257.756,271.424 258.134,272.037 258.294 C 272.708 258.469,272.839 258.751,272.699 259.710 C 272.564 260.627,272.696 260.952,273.261 261.100 C 273.766 261.232,274.000 261.662,274.000 262.459 C 274.000 263.205,274.253 263.718,274.700 263.883 C 275.536 264.192,276.023 264.839,275.750 265.281 C 275.642 265.456,267.913 265.600,258.576 265.600 L 241.600 265.600 241.600 264.200 C 241.600 263.333,241.295 262.495,240.800 262.000 C 240.360 261.560,240.000 261.003,240.000 260.762 C 240.000 260.521,239.750 259.846,239.445 259.262 C 239.140 258.678,238.686 257.687,238.436 257.061 C 238.156 256.360,237.771 256.002,237.436 256.131 C 237.057 256.276,236.952 256.105,237.092 255.571 C 237.202 255.148,237.002 254.357,236.646 253.815 C 236.291 253.272,236.000 252.552,236.000 252.214 C 236.000 251.876,235.640 251.240,235.200 250.800 C 234.760 250.360,234.400 249.662,234.400 249.249 C 234.400 248.836,234.130 248.274,233.800 248.000 C 233.470 247.726,233.200 247.164,233.200 246.751 C 233.200 246.338,233.009 246.000,232.776 246.000 C 232.543 246.000,232.465 245.819,232.602 245.597 C 232.739 245.376,232.569 245.086,232.225 244.954 C 231.881 244.822,231.600 244.294,231.600 243.781 C 231.600 243.267,231.409 242.729,231.175 242.585 C 230.708 242.296,229.831 240.383,229.939 239.889 C 229.977 239.718,229.736 239.473,229.404 239.346 C 229.072 239.219,228.800 238.743,228.800 238.289 C 228.800 237.835,228.524 237.158,228.188 236.786 C 227.851 236.414,227.493 235.680,227.392 235.155 C 227.292 234.630,226.937 234.000,226.605 233.756 C 226.272 233.512,226.000 233.057,226.000 232.745 C 226.000 232.433,225.720 231.778,225.377 231.288 C 225.034 230.799,224.676 229.994,224.582 229.499 C 224.487 229.005,224.167 228.420,223.871 228.200 C 223.575 227.980,223.220 227.346,223.082 226.792 C 222.944 226.238,222.469 225.396,222.027 224.921 C 221.511 224.368,221.389 224.004,221.687 223.904 C 221.975 223.808,221.819 223.419,221.275 222.875 C 220.794 222.394,220.400 221.699,220.400 221.331 C 220.400 220.964,220.124 220.358,219.788 219.986 C 219.451 219.614,219.093 218.880,218.992 218.355 C 218.892 217.830,218.537 217.200,218.205 216.956 C 217.872 216.712,217.600 216.155,217.600 215.718 C 217.600 215.281,217.261 214.617,216.846 214.242 C 216.431 213.866,215.983 213.016,215.851 212.353 C 215.694 211.572,215.445 211.249,215.143 211.435 C 214.863 211.608,214.784 211.550,214.945 211.289 C 215.092 211.051,215.038 210.747,214.824 210.615 C 214.610 210.483,214.529 210.129,214.645 209.828 C 214.760 209.528,214.507 208.948,214.083 208.541 C 213.660 208.133,213.192 207.298,213.045 206.684 C 212.897 206.070,212.597 205.678,212.378 205.813 C 212.159 205.949,212.006 205.911,212.037 205.730 C 212.229 204.627,211.895 203.503,211.200 202.907 C 210.760 202.530,210.400 201.902,210.400 201.511 C 210.400 201.120,210.209 200.800,209.976 200.800 C 209.743 200.800,209.656 200.632,209.783 200.428 C 209.909 200.223,209.830 199.942,209.607 199.804 C 209.383 199.666,209.200 199.203,209.200 198.776 C 209.200 198.349,208.840 197.640,208.400 197.200 C 207.960 196.760,207.600 196.164,207.600 195.876 C 207.600 195.589,207.336 195.004,207.013 194.576 C 206.690 194.149,206.420 193.485,206.413 193.100 C 206.406 192.715,206.040 192.040,205.600 191.600 C 205.160 191.160,204.800 190.619,204.800 190.399 C 204.800 190.178,204.440 189.325,204.000 188.504 C 203.560 187.684,203.200 186.702,203.200 186.324 C 203.200 184.490,198.255 184.905,198.073 186.754 C 198.003 187.465,197.693 188.143,197.384 188.262 C 197.075 188.380,196.706 189.092,196.565 189.844 C 196.424 190.596,196.043 191.360,195.719 191.542 C 195.394 191.723,195.144 191.991,195.164 192.136 C 195.318 193.269,195.112 194.000,194.640 194.000 C 194.325 194.000,193.916 194.658,193.707 195.500 C 193.502 196.325,193.162 196.967,192.950 196.928 C 192.739 196.888,192.523 197.415,192.471 198.098 C 192.419 198.782,192.034 199.581,191.614 199.875 C 191.195 200.169,190.796 200.902,190.726 201.504 C 190.655 202.120,190.381 202.556,190.100 202.500 C 189.528 202.386,189.600 203.253,190.200 203.694 C 190.448 203.876,190.410 203.990,190.100 203.994 C 189.825 203.997,189.600 204.227,189.600 204.504 C 189.600 204.781,189.253 205.225,188.828 205.490 C 188.403 205.755,187.998 206.473,187.928 207.086 C 187.858 207.699,187.618 208.169,187.394 208.131 C 187.171 208.094,186.967 208.603,186.940 209.262 C 186.911 209.976,186.559 210.693,186.072 211.035 C 185.621 211.350,185.196 212.102,185.126 212.704 C 185.055 213.320,184.781 213.756,184.500 213.700 C 184.225 213.645,184.021 213.735,184.047 213.900 C 184.235 215.088,183.917 216.400,183.443 216.400 C 183.136 216.400,182.776 216.685,182.643 217.033 C 182.308 217.905,182.338 218.086,182.772 217.817 C 182.977 217.691,183.258 217.770,183.396 217.993 C 183.534 218.217,183.347 218.400,182.981 218.400 C 182.543 218.400,182.396 218.613,182.553 219.021 C 182.684 219.362,182.633 219.544,182.441 219.425 C 181.933 219.112,181.169 220.174,181.042 221.371 C 180.982 221.937,180.783 222.536,180.602 222.701 C 180.420 222.865,180.416 222.752,180.592 222.448 C 180.807 222.076,180.737 221.954,180.375 222.075 C 180.080 222.173,179.813 222.717,179.783 223.282 C 179.753 223.848,179.362 224.776,178.915 225.344 C 178.373 226.034,178.148 226.814,178.241 227.689 C 178.370 228.919,178.343 228.952,177.789 228.224 C 177.465 227.796,177.184 227.526,177.163 227.624 C 177.143 227.721,177.039 228.420,176.932 229.179 C 176.825 229.937,176.454 230.765,176.106 231.019 C 175.715 231.305,175.561 231.807,175.700 232.341 C 175.824 232.814,175.762 233.100,175.563 232.977 C 175.363 232.854,175.200 232.943,175.200 233.176 C 175.200 233.409,174.982 233.555,174.714 233.500 C 174.431 233.442,174.199 233.899,174.157 234.600 C 174.050 236.399,174.029 236.465,173.642 236.226 C 173.445 236.104,173.173 236.294,173.037 236.647 C 172.852 237.131,172.965 237.227,173.495 237.039 C 173.927 236.886,173.812 237.098,173.200 237.586 C 172.584 238.076,172.418 238.386,172.767 238.391 C 173.529 238.403,173.060 238.833,172.137 238.968 C 171.390 239.078,171.339 239.196,171.250 241.024 C 171.222 241.595,171.023 241.938,170.800 241.800 C 170.580 241.664,170.378 241.743,170.350 241.976 C 170.229 242.999,170.185 243.148,169.928 243.406 C 169.778 243.556,169.752 243.931,169.870 244.239 C 170.013 244.611,169.801 244.800,169.243 244.800 C 168.779 244.800,168.421 244.935,168.447 245.100 C 168.717 246.808,168.318 248.496,167.600 248.684 C 167.160 248.799,166.800 249.148,166.800 249.459 C 166.800 249.770,166.569 250.114,166.286 250.222 C 166.004 250.331,165.733 250.900,165.685 251.487 C 165.636 252.075,165.424 252.662,165.214 252.792 C 165.003 252.922,164.552 253.697,164.210 254.514 C 163.869 255.331,163.451 256.000,163.282 256.000 C 163.113 256.000,162.934 256.484,162.885 257.076 C 162.836 257.668,162.437 258.535,161.998 259.002 C 161.559 259.469,161.200 260.245,161.200 260.726 C 161.200 261.207,160.968 261.600,160.685 261.600 C 160.394 261.600,160.128 262.151,160.073 262.871 C 160.019 263.580,159.640 264.377,159.214 264.675 C 158.795 264.969,158.396 265.702,158.326 266.304 C 158.257 266.907,158.012 267.367,157.783 267.328 C 157.554 267.288,157.323 267.815,157.271 268.498 C 157.219 269.182,156.834 269.981,156.414 270.275 C 155.995 270.569,155.596 271.302,155.526 271.904 C 155.455 272.520,155.181 272.956,154.900 272.900 C 154.328 272.786,154.400 273.653,155.000 274.094 C 155.248 274.276,155.210 274.390,154.900 274.394 C 154.625 274.397,154.400 274.627,154.400 274.904 C 154.400 275.181,154.053 275.625,153.628 275.890 C 153.203 276.155,152.798 276.873,152.728 277.486 C 152.658 278.099,152.399 278.563,152.154 278.518 C 151.908 278.473,151.708 278.743,151.708 279.118 C 151.711 280.746,151.566 281.200,151.043 281.200 C 150.736 281.200,150.376 281.485,150.243 281.833 C 149.891 282.750,149.939 282.884,150.500 282.544 C 150.775 282.377,150.505 282.894,149.900 283.693 C 149.295 284.493,148.800 285.498,148.800 285.927 C 148.800 286.365,148.456 286.797,148.015 286.912 C 147.479 287.052,147.280 287.378,147.388 287.939 C 147.475 288.391,147.173 289.235,146.717 289.815 C 146.261 290.395,145.868 291.259,145.844 291.735 C 145.820 292.211,145.548 292.600,145.240 292.600 C 144.932 292.600,144.615 293.050,144.535 293.600 C 144.311 295.152,144.041 295.673,143.603 295.402 C 143.369 295.257,143.197 295.625,143.194 296.276 C 143.187 297.491,142.712 298.495,142.177 298.424 C 141.993 298.399,141.776 298.878,141.695 299.488 C 141.613 300.097,141.293 300.877,140.983 301.219 C 140.673 301.562,140.352 302.282,140.270 302.821 C 140.188 303.359,139.868 303.800,139.560 303.800 C 138.996 303.800,138.941 303.956,138.850 305.824 C 138.822 306.387,138.639 306.748,138.442 306.626 C 138.028 306.370,137.485 307.435,137.435 308.600 C 137.416 309.040,137.130 309.400,136.800 309.400 C 136.196 309.400,136.142 309.548,136.050 311.424 C 136.023 311.987,135.847 312.353,135.660 312.237 C 135.306 312.018,134.631 313.156,134.198 314.700 C 134.060 315.195,133.817 315.600,133.659 315.600 C 133.282 315.600,133.375 318.308,133.765 318.699 C 134.419 319.352,359.812 319.054,359.671 318.400 C 359.568 317.919,359.644 317.899,360.051 318.300 C 360.723 318.960,361.067 318.932,361.067 318.218 C 361.067 317.897,360.917 317.728,360.733 317.841 C 360.550 317.955,360.400 317.857,360.400 317.624 C 360.400 317.391,360.580 317.200,360.800 317.200 C 361.592 317.200,361.232 315.134,360.402 314.917 C 359.765 314.750,359.647 314.470,359.814 313.520 C 359.982 312.564,359.864 312.290,359.212 312.119 C 358.630 311.967,358.400 311.576,358.400 310.741 C 358.400 310.073,358.143 309.476,357.800 309.345 C 357.470 309.218,357.200 308.853,357.200 308.534 C 357.200 308.185,357.000 308.066,356.700 308.235 C 356.315 308.452,356.308 308.401,356.669 308.010 C 357.239 307.393,356.924 306.400,356.157 306.400 C 355.815 306.400,355.600 305.972,355.600 305.289 C 355.600 304.658,355.240 303.869,354.767 303.464 C 354.308 303.072,354.033 302.492,354.154 302.175 C 354.276 301.859,354.190 301.600,353.964 301.600 C 353.738 301.600,353.664 301.420,353.800 301.200 C 353.936 300.980,353.767 300.800,353.424 300.800 C 352.993 300.800,352.800 300.417,352.800 299.563 C 352.800 298.664,352.582 298.268,352.004 298.117 C 351.567 298.003,351.308 297.750,351.428 297.555 C 351.549 297.360,351.412 297.197,351.124 297.194 C 350.700 297.189,350.698 297.125,351.114 296.862 C 351.745 296.461,351.323 295.200,350.557 295.200 C 350.201 295.200,350.000 294.754,350.000 293.963 C 350.000 293.123,349.775 292.664,349.300 292.535 C 348.915 292.430,348.248 291.862,347.819 291.272 C 347.207 290.433,347.186 290.320,347.719 290.749 C 348.319 291.233,348.400 291.197,348.400 290.449 C 348.400 289.898,348.147 289.600,347.680 289.600 C 347.093 289.600,346.991 289.342,347.124 288.200 C 347.265 286.991,347.173 286.800,346.444 286.800 C 345.746 286.800,345.600 286.558,345.600 285.400 C 345.600 284.493,345.424 284.035,345.100 284.100 C 344.798 284.160,344.549 283.668,344.471 282.855 C 344.383 281.929,344.102 281.447,343.571 281.308 C 342.863 281.123,342.586 280.268,342.779 278.860 C 342.820 278.563,342.680 278.427,342.469 278.558 C 342.009 278.842,341.600 277.906,341.600 276.567 C 341.600 275.679,341.265 275.435,340.200 275.547 C 339.980 275.571,339.800 275.007,339.800 274.295 C 339.800 273.583,339.620 272.961,339.400 272.913 C 339.180 272.866,338.910 272.146,338.800 271.313 C 338.646 270.151,338.438 269.827,337.900 269.918 C 337.346 270.011,337.200 269.748,337.200 268.660 C 337.200 267.807,336.972 267.198,336.600 267.055 C 336.244 266.919,336.000 266.317,336.000 265.575 C 336.000 264.662,335.785 264.269,335.200 264.116 C 334.599 263.959,334.400 263.570,334.400 262.553 C 334.400 261.684,334.221 261.236,333.900 261.300 C 333.602 261.360,333.350 260.883,333.276 260.119 C 333.194 259.272,332.890 258.755,332.376 258.592 C 331.807 258.412,331.600 257.981,331.600 256.973 C 331.600 256.019,331.417 255.600,331.000 255.600 C 330.596 255.600,330.400 255.196,330.400 254.363 C 330.400 253.462,330.183 253.068,329.600 252.916 C 328.999 252.759,328.800 252.370,328.800 251.353 C 328.800 250.539,328.601 249.999,328.300 249.997 C 328.025 249.995,327.592 249.545,327.337 248.996 C 327.083 248.448,327.038 248.100,327.237 248.223 C 327.437 248.346,327.600 248.240,327.600 247.986 C 327.600 247.733,327.240 247.431,326.800 247.316 C 326.199 247.159,326.000 246.770,326.000 245.753 C 326.000 244.817,325.815 244.400,325.400 244.400 C 325.070 244.400,324.800 244.130,324.800 243.800 C 324.800 243.467,324.444 243.200,324.000 243.200 C 323.560 243.200,323.200 243.030,323.200 242.823 C 323.200 242.616,323.550 242.513,323.977 242.596 C 324.520 242.700,324.688 242.573,324.534 242.173 C 324.413 241.858,324.083 241.600,323.800 241.600 C 323.189 241.600,322.693 240.497,323.046 239.926 C 323.183 239.704,322.722 239.001,322.023 238.362 C 321.195 237.606,320.965 237.200,321.363 237.200 C 321.743 237.200,321.887 236.972,321.745 236.600 C 321.618 236.270,321.205 236.000,320.826 236.000 C 320.301 236.000,320.177 235.736,320.302 234.885 C 320.431 234.010,320.248 233.654,319.450 233.227 C 318.706 232.829,318.522 232.511,318.763 232.042 C 319.214 231.161,318.876 230.400,318.033 230.400 C 317.051 230.400,316.730 229.967,317.248 229.342 C 317.844 228.624,317.390 227.552,316.615 227.850 C 316.031 228.074,315.753 226.973,315.970 225.300 C 316.006 225.025,315.757 224.800,315.418 224.800 C 314.975 224.800,314.800 224.391,314.800 223.357 C 314.800 222.253,314.662 221.967,314.213 222.140 C 313.474 222.423,313.156 221.918,313.112 220.395 C 313.092 219.676,312.863 219.200,312.539 219.200 C 312.214 219.200,312.000 218.751,312.000 218.067 C 312.000 216.727,311.647 216.263,311.022 216.782 C 310.709 217.042,310.544 216.834,310.483 216.100 C 310.435 215.520,310.172 214.902,309.898 214.729 C 309.501 214.477,309.502 214.411,309.900 214.406 C 310.175 214.403,310.400 214.220,310.400 214.000 C 310.400 213.780,310.179 213.645,309.909 213.700 C 309.640 213.755,309.357 213.395,309.282 212.900 C 309.206 212.405,308.932 211.997,308.672 211.994 C 308.369 211.990,308.399 211.862,308.754 211.637 C 309.198 211.355,309.144 211.198,308.479 210.842 C 307.958 210.563,307.604 209.917,307.525 209.099 C 307.456 208.385,307.220 207.851,307.000 207.913 C 306.780 207.976,306.510 207.346,306.400 206.513 C 306.250 205.376,306.032 205.028,305.525 205.112 C 305.007 205.198,304.821 204.870,304.725 203.712 C 304.647 202.765,304.413 202.237,304.100 202.300 C 303.667 202.387,303.363 201.006,303.564 199.866 C 303.596 199.682,303.258 199.436,302.811 199.319 C 302.267 199.176,302.000 198.775,302.000 198.097 C 302.000 197.542,301.730 196.888,301.401 196.644 C 301.071 196.400,300.763 195.709,300.714 195.110 C 300.633 194.089,299.870 193.386,299.257 193.765 C 299.107 193.857,299.053 193.221,299.136 192.352 C 299.248 191.175,299.148 190.800,298.743 190.886 C 298.393 190.959,298.156 190.545,298.076 189.719 C 297.994 188.872,297.690 188.355,297.176 188.192 C 296.607 188.012,296.400 187.581,296.400 186.573 C 296.400 185.619,296.217 185.200,295.800 185.200 C 295.396 185.200,295.200 184.796,295.200 183.963 C 295.200 183.062,294.983 182.668,294.400 182.516 C 293.572 182.299,293.461 182.025,293.584 180.500 C 293.632 179.918,293.435 179.600,293.029 179.600 C 292.645 179.600,292.398 179.249,292.394 178.700 C 292.387 177.748,291.883 176.709,291.455 176.766 C 290.679 176.870,290.575 176.676,290.724 175.400 C 290.851 174.312,290.744 174.000,290.244 174.000 C 289.876 174.000,289.600 173.671,289.600 173.233 C 289.600 171.974,289.157 171.200,288.438 171.200 C 287.899 171.200,287.794 170.913,287.924 169.800 C 288.051 168.712,287.944 168.400,287.444 168.400 C 287.090 168.400,286.778 168.130,286.750 167.800 C 286.723 167.470,286.655 167.020,286.600 166.800 C 286.545 166.580,286.478 166.220,286.450 166.000 C 286.423 165.780,286.130 165.600,285.800 165.600 C 285.381 165.600,285.200 165.178,285.200 164.200 C 285.200 163.222,285.019 162.800,284.600 162.800 C 284.270 162.800,283.973 162.575,283.939 162.300 C 283.906 162.025,283.836 161.620,283.785 161.400 C 283.734 161.180,283.672 160.775,283.646 160.500 C 283.621 160.225,283.330 160.000,283.000 160.000 C 282.420 160.000,282.231 159.360,282.379 157.900 C 282.426 157.437,282.171 157.200,281.625 157.200 C 280.949 157.200,280.800 156.948,280.800 155.800 C 280.800 154.822,280.619 154.400,280.200 154.400 C 279.781 154.400,279.600 153.978,279.600 153.000 C 279.600 151.867,279.448 151.600,278.800 151.600 C 278.152 151.600,278.000 151.333,278.000 150.200 C 278.000 149.119,277.836 148.800,277.280 148.800 C 276.693 148.800,276.591 148.542,276.724 147.400 C 276.865 146.191,276.773 146.000,276.044 146.000 C 275.211 146.000,275.012 145.498,275.189 143.844 C 275.242 143.348,275.080 143.161,274.718 143.299 C 274.209 143.495,274.027 142.963,273.898 140.900 C 273.869 140.439,273.741 140.376,272.900 140.413 C 272.735 140.421,272.508 139.746,272.395 138.913 C 272.271 138.005,271.991 137.440,271.695 137.500 C 271.267 137.586,270.965 136.198,271.164 135.066 C 271.196 134.882,270.858 134.636,270.411 134.519 C 269.629 134.314,269.436 133.947,269.567 132.914 C 269.648 132.274,268.151 130.791,267.769 131.133 C 267.606 131.280,267.631 131.130,267.825 130.800 C 268.447 129.743,268.363 129.115,267.571 128.908 C 266.766 128.698,266.660 128.419,266.790 126.855 C 266.836 126.301,266.701 126.014,266.462 126.162 C 265.947 126.480,265.621 125.957,265.511 124.635 C 265.462 124.045,265.118 123.501,264.713 123.372 C 264.211 123.213,264.000 122.739,264.000 121.773 C 264.000 120.819,263.817 120.400,263.400 120.400 C 262.791 120.400,262.744 120.295,262.643 118.700 C 262.603 118.071,262.341 117.807,261.772 117.823 C 261.071 117.843,260.974 117.634,261.078 116.323 C 261.182 115.014,261.083 114.800,260.376 114.800 C 259.899 114.800,259.663 114.622,259.814 114.377 C 260.273 113.634,259.626 112.000,258.873 112.000 C 258.294 112.000,258.191 111.737,258.324 110.600 C 258.451 109.512,258.344 109.200,257.844 109.200 C 257.445 109.200,257.198 108.858,257.194 108.300 C 257.187 107.226,256.650 106.279,256.155 106.466 C 255.960 106.540,255.744 105.925,255.676 105.100 C 255.595 104.119,255.353 103.600,254.976 103.600 C 254.647 103.600,254.397 103.214,254.394 102.700 C 254.386 101.510,253.800 100.629,253.245 100.972 C 252.806 101.243,252.615 100.268,252.789 98.644 C 252.848 98.088,252.673 97.940,252.124 98.083 C 251.530 98.239,251.389 98.067,251.431 97.239 C 251.501 95.840,251.227 95.200,250.557 95.200 C 250.016 95.200,249.833 94.536,249.979 93.100 C 250.026 92.637,249.771 92.400,249.225 92.400 C 248.549 92.400,248.400 92.148,248.400 91.000 C 248.400 90.022,248.219 89.600,247.800 89.600 C 247.218 89.600,247.011 88.947,247.132 87.500 C 247.170 87.048,246.908 86.800,246.395 86.800 C 245.753 86.800,245.600 86.531,245.600 85.400 C 245.600 84.422,245.419 84.000,245.000 84.000 C 244.581 84.000,244.400 83.578,244.400 82.600 C 244.400 81.467,244.248 81.200,243.600 81.200 C 242.952 81.200,242.800 80.933,242.800 79.800 C 242.800 78.822,242.619 78.400,242.200 78.400 C 241.783 78.400,241.600 77.981,241.600 77.027 C 241.600 76.019,241.393 75.588,240.824 75.408 C 240.310 75.245,240.006 74.728,239.924 73.881 C 239.850 73.117,239.598 72.640,239.300 72.700 C 239.016 72.757,238.778 72.368,238.750 71.800 C 238.658 69.959,238.585 69.799,237.891 69.918 C 237.242 70.028,237.000 69.427,237.167 68.114 C 237.248 67.474,235.751 65.991,235.369 66.333 C 235.206 66.480,235.231 66.330,235.425 66.000 C 236.047 64.943,235.963 64.315,235.171 64.108 C 234.426 63.914,234.237 63.538,234.367 62.514 C 234.448 61.874,232.951 60.391,232.569 60.733 C 232.406 60.880,232.431 60.730,232.625 60.400 C 233.230 59.371,233.153 58.839,232.362 58.588 C 231.804 58.411,231.600 57.972,231.600 56.949 C 231.600 56.114,231.438 55.653,231.197 55.802 C 230.760 56.072,230.494 55.561,230.258 54.000 C 230.155 53.318,229.860 53.007,229.332 53.023 C 228.677 53.043,228.576 52.811,228.678 51.523 C 228.782 50.214,228.683 50.000,227.976 50.000 C 227.499 50.000,227.263 49.822,227.414 49.577 C 227.873 48.834,227.226 47.200,226.473 47.200 C 225.894 47.200,225.791 46.937,225.924 45.800 C 226.051 44.712,225.944 44.400,225.444 44.400 C 225.045 44.400,224.798 44.058,224.794 43.500 C 224.787 42.464,224.273 41.512,223.755 41.574 C 223.560 41.598,223.344 40.983,223.276 40.208 C 223.196 39.307,222.944 38.800,222.576 38.800 C 222.259 38.800,222.000 38.455,222.000 38.033 C 222.000 36.841,221.569 36.000,220.957 36.000 C 220.408 36.000,220.230 35.326,220.389 33.844 C 220.450 33.268,220.277 33.139,219.659 33.300 C 218.971 33.480,218.870 33.348,218.987 32.420 C 219.151 31.127,218.671 30.185,218.045 30.572 C 217.613 30.839,217.418 29.886,217.579 28.300 C 217.626 27.837,217.371 27.600,216.825 27.600 C 216.149 27.600,216.000 27.348,216.000 26.200 C 216.000 25.270,215.813 24.800,215.443 24.800 C 214.736 24.800,214.391 23.921,214.674 22.839 C 214.846 22.182,214.709 22.000,214.047 22.000 C 213.346 22.000,213.200 21.759,213.200 20.600 C 213.200 19.622,213.019 19.200,212.600 19.200 C 212.181 19.200,212.000 18.778,212.000 17.800 C 212.000 16.667,211.848 16.400,211.200 16.400 C 210.552 16.400,210.400 16.133,210.400 15.000 C 210.400 14.022,210.219 13.600,209.800 13.600 C 209.385 13.600,209.200 13.183,209.200 12.247 C 209.200 11.230,209.001 10.841,208.400 10.684 C 207.825 10.534,207.600 10.138,207.600 9.280 C 207.600 8.587,207.348 7.989,207.000 7.855 C 206.649 7.721,206.400 7.121,206.400 6.413 C 206.400 5.746,206.220 5.200,206.000 5.200 C 205.780 5.200,205.465 5.206,205.300 5.213 C 205.135 5.221,204.908 4.546,204.795 3.713 C 204.671 2.805,204.391 2.240,204.095 2.300 C 203.789 2.362,203.600 1.940,203.600 1.200 L 203.600 0.000 200.800 0.000 L 198.000 0.000 198.000 1.224 M129.200 137.800 C 128.792 138.291,128.820 138.400,129.351 138.400 C 129.708 138.400,130.000 138.130,130.000 137.800 C 130.000 137.470,129.932 137.200,129.849 137.200 C 129.766 137.200,129.474 137.470,129.200 137.800 M148.800 287.776 C 148.800 288.093,148.631 288.457,148.424 288.585 C 148.218 288.713,148.076 288.453,148.109 288.009 C 148.178 287.095,148.800 286.886,148.800 287.776 " stroke="none" fill="#9c2ccc" fill-rule="evenodd"></path><path id="path1" d="" stroke="none" fill="#9c34cc" fill-rule="evenodd"></path><path id="path2" d="M193.179 10.336 C 192.557 10.840,192.417 11.163,192.735 11.360 C 192.991 11.518,193.200 11.431,193.200 11.168 C 193.200 10.904,193.515 10.449,193.900 10.157 C 194.285 9.865,194.485 9.620,194.344 9.613 C 194.204 9.606,193.679 9.931,193.179 10.336 M191.400 13.351 C 190.721 13.847,190.729 13.888,191.541 14.101 C 192.014 14.224,192.310 14.178,192.198 13.997 C 192.086 13.816,192.212 13.596,192.478 13.507 C 192.800 13.400,192.821 13.260,192.539 13.086 C 192.307 12.943,191.795 13.062,191.400 13.351 M186.276 24.276 C 186.153 24.475,186.198 24.874,186.376 25.162 C 186.554 25.450,186.801 25.523,186.924 25.324 C 187.047 25.125,187.002 24.726,186.824 24.438 C 186.646 24.150,186.399 24.077,186.276 24.276 M161.568 72.700 C 161.129 73.280,161.129 73.320,161.568 72.931 C 161.859 72.673,162.375 72.569,162.714 72.699 C 163.119 72.855,163.232 72.775,163.042 72.468 C 162.637 71.813,162.186 71.884,161.568 72.700 M158.976 78.187 C 158.274 78.719,158.267 78.776,158.900 78.787 C 159.285 78.794,159.600 78.609,159.600 78.376 C 159.600 78.143,159.808 78.081,160.062 78.238 C 160.348 78.415,160.415 78.348,160.238 78.062 C 159.881 77.485,159.909 77.482,158.976 78.187 M158.495 80.266 C 158.218 80.378,157.788 80.859,157.541 81.335 C 157.120 82.145,157.159 82.138,158.146 81.230 C 158.726 80.697,159.200 80.202,159.200 80.130 C 159.200 79.984,159.193 79.985,158.495 80.266 M155.067 86.267 C 154.581 86.753,154.790 87.179,155.400 86.945 C 155.730 86.818,156.000 86.554,156.000 86.357 C 156.000 85.938,155.449 85.884,155.067 86.267 M151.149 94.500 C 150.967 94.857,150.951 96.383,151.131 96.202 C 151.427 95.906,151.650 94.400,151.397 94.400 C 151.289 94.400,151.177 94.445,151.149 94.500 M149.255 97.733 C 148.921 98.136,148.954 98.267,149.389 98.267 C 149.706 98.267,150.058 98.027,150.170 97.733 C 150.283 97.440,150.223 97.200,150.036 97.200 C 149.850 97.200,149.499 97.440,149.255 97.733 M144.216 108.539 C 143.810 108.835,143.650 109.184,143.859 109.313 C 144.069 109.442,144.457 109.200,144.723 108.774 C 145.295 107.858,145.204 107.816,144.216 108.539 M141.039 114.338 C 140.900 114.561,140.982 114.865,141.220 115.012 C 141.835 115.393,142.232 114.872,141.718 114.358 C 141.431 114.071,141.207 114.064,141.039 114.338 M132.026 131.769 C 131.639 132.235,131.702 132.298,132.377 132.122 C 132.830 132.004,133.200 131.748,133.200 131.553 C 133.200 131.014,132.554 131.132,132.026 131.769 M129.149 137.500 C 128.651 138.134,128.666 138.149,129.300 137.651 C 129.902 137.179,130.000 137.189,130.000 137.722 C 130.000 138.062,129.685 138.424,129.300 138.524 C 128.654 138.693,128.653 138.711,129.286 138.754 C 130.004 138.802,130.956 137.489,130.519 137.053 C 130.104 136.638,129.729 136.760,129.149 137.500 M126.445 142.945 C 126.079 143.386,126.184 143.454,126.992 143.299 C 127.541 143.194,127.892 142.949,127.772 142.754 C 127.458 142.246,126.967 142.317,126.445 142.945 M125.378 145.635 C 125.231 145.874,125.286 146.246,125.501 146.461 C 125.757 146.717,125.968 146.566,126.109 146.026 C 126.336 145.158,125.838 144.891,125.378 145.635 M123.965 148.533 C 123.388 148.958,123.391 149.063,123.999 149.700 C 124.548 150.275,124.667 150.293,124.667 149.800 C 124.667 149.470,124.472 149.197,124.233 149.194 C 123.995 149.191,124.065 149.020,124.388 148.816 C 124.712 148.611,124.892 148.358,124.788 148.254 C 124.684 148.150,124.314 148.276,123.965 148.533 M122.880 150.880 C 122.302 151.458,122.256 152.000,122.786 152.000 C 122.998 152.000,123.365 151.640,123.600 151.200 C 124.072 150.319,123.635 150.125,122.880 150.880 M114.035 168.158 C 113.658 168.612,113.667 168.719,114.078 168.659 C 114.630 168.578,114.987 168.053,114.690 167.757 C 114.593 167.660,114.298 167.841,114.035 168.158 M107.519 181.311 C 107.405 181.910,107.455 182.400,107.632 182.400 C 108.164 182.400,108.317 181.846,108.014 181.011 C 107.759 180.311,107.704 180.344,107.519 181.311 M105.817 184.772 C 105.544 185.214,106.175 185.692,106.544 185.322 C 106.925 184.942,106.854 184.400,106.424 184.400 C 106.217 184.400,105.944 184.568,105.817 184.772 M101.424 193.413 C 100.996 193.736,100.827 194.000,101.047 194.000 C 101.267 194.000,101.796 193.736,102.224 193.413 C 102.651 193.090,102.820 192.825,102.600 192.825 C 102.380 192.825,101.851 193.090,101.424 193.413 M97.144 201.979 C 96.222 202.741,96.220 202.753,97.072 202.540 C 97.552 202.420,98.041 202.069,98.160 201.761 C 98.446 201.014,98.267 201.053,97.144 201.979 M90.493 215.600 C 90.218 216.040,90.131 216.400,90.300 216.400 C 90.469 216.400,90.832 216.040,91.107 215.600 C 91.382 215.160,91.469 214.800,91.300 214.800 C 91.131 214.800,90.768 215.160,90.493 215.600 M177.830 227.467 C 177.689 227.834,177.737 228.297,177.937 228.497 C 178.154 228.714,178.300 228.447,178.300 227.830 C 178.300 226.631,178.185 226.542,177.830 227.467 M79.169 238.100 C 78.827 239.220,78.918 239.600,79.428 239.177 C 79.738 238.920,79.893 238.550,79.772 238.355 C 79.565 238.020,79.236 237.881,79.169 238.100 M323.200 242.835 C 323.200 243.036,323.590 243.200,324.067 243.200 C 324.543 243.200,324.808 243.075,324.655 242.922 C 324.223 242.489,323.200 242.429,323.200 242.835 M148.109 288.009 C 148.076 288.453,148.218 288.713,148.424 288.585 C 148.879 288.304,148.927 287.200,148.485 287.200 C 148.312 287.200,148.143 287.564,148.109 288.009 " stroke="none" fill="#a02ccc" fill-rule="evenodd"></path><path id="path3" d="M193.179 10.336 C 192.557 10.840,192.417 11.163,192.735 11.360 C 192.991 11.518,193.200 11.431,193.200 11.168 C 193.200 10.904,193.515 10.449,193.900 10.157 C 194.285 9.865,194.485 9.620,194.344 9.613 C 194.204 9.606,193.679 9.931,193.179 10.336 M191.400 13.351 C 190.721 13.847,190.729 13.888,191.541 14.101 C 192.014 14.224,192.310 14.178,192.198 13.997 C 192.086 13.816,192.212 13.596,192.478 13.507 C 192.800 13.400,192.821 13.260,192.539 13.086 C 192.307 12.943,191.795 13.062,191.400 13.351 M186.276 24.276 C 186.153 24.475,186.198 24.874,186.376 25.162 C 186.554 25.450,186.801 25.523,186.924 25.324 C 187.047 25.125,187.002 24.726,186.824 24.438 C 186.646 24.150,186.399 24.077,186.276 24.276 M161.568 72.700 C 161.129 73.280,161.129 73.320,161.568 72.931 C 161.859 72.673,162.375 72.569,162.714 72.699 C 163.119 72.855,163.232 72.775,163.042 72.468 C 162.637 71.813,162.186 71.884,161.568 72.700 M158.976 78.187 C 158.274 78.719,158.267 78.776,158.900 78.787 C 159.285 78.794,159.600 78.609,159.600 78.376 C 159.600 78.143,159.808 78.081,160.062 78.238 C 160.348 78.415,160.415 78.348,160.238 78.062 C 159.881 77.485,159.909 77.482,158.976 78.187 M158.495 80.266 C 158.218 80.378,157.788 80.859,157.541 81.335 C 157.120 82.145,157.159 82.138,158.146 81.230 C 158.726 80.697,159.200 80.202,159.200 80.130 C 159.200 79.984,159.193 79.985,158.495 80.266 M155.067 86.267 C 154.581 86.753,154.790 87.179,155.400 86.945 C 155.730 86.818,156.000 86.554,156.000 86.357 C 156.000 85.938,155.449 85.884,155.067 86.267 M151.149 94.500 C 150.967 94.857,150.951 96.383,151.131 96.202 C 151.427 95.906,151.650 94.400,151.397 94.400 C 151.289 94.400,151.177 94.445,151.149 94.500 M149.255 97.733 C 148.921 98.136,148.954 98.267,149.389 98.267 C 149.706 98.267,150.058 98.027,150.170 97.733 C 150.283 97.440,150.223 97.200,150.036 97.200 C 149.850 97.200,149.499 97.440,149.255 97.733 M144.216 108.539 C 143.810 108.835,143.650 109.184,143.859 109.313 C 144.069 109.442,144.457 109.200,144.723 108.774 C 145.295 107.858,145.204 107.816,144.216 108.539 M141.039 114.338 C 140.900 114.561,140.982 114.865,141.220 115.012 C 141.835 115.393,142.232 114.872,141.718 114.358 C 141.431 114.071,141.207 114.064,141.039 114.338 M132.026 131.769 C 131.639 132.235,131.702 132.298,132.377 132.122 C 132.830 132.004,133.200 131.748,133.200 131.553 C 133.200 131.014,132.554 131.132,132.026 131.769 M129.149 137.500 C 128.651 138.134,128.666 138.149,129.300 137.651 C 129.902 137.179,130.000 137.189,130.000 137.722 C 130.000 138.062,129.685 138.424,129.300 138.524 C 128.654 138.693,128.653 138.711,129.286 138.754 C 130.004 138.802,130.956 137.489,130.519 137.053 C 130.104 136.638,129.729 136.760,129.149 137.500 M126.445 142.945 C 126.079 143.386,126.184 143.454,126.992 143.299 C 127.541 143.194,127.892 142.949,127.772 142.754 C 127.458 142.246,126.967 142.317,126.445 142.945 M125.378 145.635 C 125.231 145.874,125.286 146.246,125.501 146.461 C 125.757 146.717,125.968 146.566,126.109 146.026 C 126.336 145.158,125.838 144.891,125.378 145.635 M123.965 148.533 C 123.388 148.958,123.391 149.063,123.999 149.700 C 124.548 150.275,124.667 150.293,124.667 149.800 C 124.667 149.470,124.472 149.197,124.233 149.194 C 123.995 149.191,124.065 149.020,124.388 148.816 C 124.712 148.611,124.892 148.358,124.788 148.254 C 124.684 148.150,124.314 148.276,123.965 148.533 M122.880 150.880 C 122.302 151.458,122.256 152.000,122.786 152.000 C 122.998 152.000,123.365 151.640,123.600 151.200 C 124.072 150.319,123.635 150.125,122.880 150.880 M114.035 168.158 C 113.658 168.612,113.667 168.719,114.078 168.659 C 114.630 168.578,114.987 168.053,114.690 167.757 C 114.593 167.660,114.298 167.841,114.035 168.158 M107.519 181.311 C 107.405 181.910,107.455 182.400,107.632 182.400 C 108.164 182.400,108.317 181.846,108.014 181.011 C 107.759 180.311,107.704 180.344,107.519 181.311 M105.817 184.772 C 105.544 185.214,106.175 185.692,106.544 185.322 C 106.925 184.942,106.854 184.400,106.424 184.400 C 106.217 184.400,105.944 184.568,105.817 184.772 M101.424 193.413 C 100.996 193.736,100.827 194.000,101.047 194.000 C 101.267 194.000,101.796 193.736,102.224 193.413 C 102.651 193.090,102.820 192.825,102.600 192.825 C 102.380 192.825,101.851 193.090,101.424 193.413 M97.144 201.979 C 96.222 202.741,96.220 202.753,97.072 202.540 C 97.552 202.420,98.041 202.069,98.160 201.761 C 98.446 201.014,98.267 201.053,97.144 201.979 M90.493 215.600 C 90.218 216.040,90.131 216.400,90.300 216.400 C 90.469 216.400,90.832 216.040,91.107 215.600 C 91.382 215.160,91.469 214.800,91.300 214.800 C 91.131 214.800,90.768 215.160,90.493 215.600 M177.830 227.467 C 177.689 227.834,177.737 228.297,177.937 228.497 C 178.154 228.714,178.300 228.447,178.300 227.830 C 178.300 226.631,178.185 226.542,177.830 227.467 M79.169 238.100 C 78.827 239.220,78.918 239.600,79.428 239.177 C 79.738 238.920,79.893 238.550,79.772 238.355 C 79.565 238.020,79.236 237.881,79.169 238.100 M323.200 242.835 C 323.200 243.036,323.590 243.200,324.067 243.200 C 324.543 243.200,324.808 243.075,324.655 242.922 C 324.223 242.489,323.200 242.429,323.200 242.835 M148.109 288.009 C 148.076 288.453,148.218 288.713,148.424 288.585 C 148.879 288.304,148.927 287.200,148.485 287.200 C 148.312 287.200,148.143 287.564,148.109 288.009 " stroke="none" fill="#a02ccc" fill-rule="evenodd"></path><path id="path4" d="M193.179 10.336 C 192.557 10.840,192.417 11.163,192.735 11.360 C 192.991 11.518,193.200 11.431,193.200 11.168 C 193.200 10.904,193.515 10.449,193.900 10.157 C 194.285 9.865,194.485 9.620,194.344 9.613 C 194.204 9.606,193.679 9.931,193.179 10.336 M191.400 13.351 C 190.721 13.847,190.729 13.888,191.541 14.101 C 192.014 14.224,192.310 14.178,192.198 13.997 C 192.086 13.816,192.212 13.596,192.478 13.507 C 192.800 13.400,192.821 13.260,192.539 13.086 C 192.307 12.943,191.795 13.062,191.400 13.351 M186.276 24.276 C 186.153 24.475,186.198 24.874,186.376 25.162 C 186.554 25.450,186.801 25.523,186.924 25.324 C 187.047 25.125,187.002 24.726,186.824 24.438 C 186.646 24.150,186.399 24.077,186.276 24.276 M161.568 72.700 C 161.129 73.280,161.129 73.320,161.568 72.931 C 161.859 72.673,162.375 72.569,162.714 72.699 C 163.119 72.855,163.232 72.775,163.042 72.468 C 162.637 71.813,162.186 71.884,161.568 72.700 M158.976 78.187 C 158.274 78.719,158.267 78.776,158.900 78.787 C 159.285 78.794,159.600 78.609,159.600 78.376 C 159.600 78.143,159.808 78.081,160.062 78.238 C 160.348 78.415,160.415 78.348,160.238 78.062 C 159.881 77.485,159.909 77.482,158.976 78.187 M158.495 80.266 C 158.218 80.378,157.788 80.859,157.541 81.335 C 157.120 82.145,157.159 82.138,158.146 81.230 C 158.726 80.697,159.200 80.202,159.200 80.130 C 159.200 79.984,159.193 79.985,158.495 80.266 M155.067 86.267 C 154.581 86.753,154.790 87.179,155.400 86.945 C 155.730 86.818,156.000 86.554,156.000 86.357 C 156.000 85.938,155.449 85.884,155.067 86.267 M151.149 94.500 C 150.967 94.857,150.951 96.383,151.131 96.202 C 151.427 95.906,151.650 94.400,151.397 94.400 C 151.289 94.400,151.177 94.445,151.149 94.500 M149.255 97.733 C 148.921 98.136,148.954 98.267,149.389 98.267 C 149.706 98.267,150.058 98.027,150.170 97.733 C 150.283 97.440,150.223 97.200,150.036 97.200 C 149.850 97.200,149.499 97.440,149.255 97.733 M144.216 108.539 C 143.810 108.835,143.650 109.184,143.859 109.313 C 144.069 109.442,144.457 109.200,144.723 108.774 C 145.295 107.858,145.204 107.816,144.216 108.539 M141.039 114.338 C 140.900 114.561,140.982 114.865,141.220 115.012 C 141.835 115.393,142.232 114.872,141.718 114.358 C 141.431 114.071,141.207 114.064,141.039 114.338 M132.026 131.769 C 131.639 132.235,131.702 132.298,132.377 132.122 C 132.830 132.004,133.200 131.748,133.200 131.553 C 133.200 131.014,132.554 131.132,132.026 131.769 M129.149 137.500 C 128.651 138.134,128.666 138.149,129.300 137.651 C 129.902 137.179,130.000 137.189,130.000 137.722 C 130.000 138.062,129.685 138.424,129.300 138.524 C 128.654 138.693,128.653 138.711,129.286 138.754 C 130.004 138.802,130.956 137.489,130.519 137.053 C 130.104 136.638,129.729 136.760,129.149 137.500 M126.445 142.945 C 126.079 143.386,126.184 143.454,126.992 143.299 C 127.541 143.194,127.892 142.949,127.772 142.754 C 127.458 142.246,126.967 142.317,126.445 142.945 M125.378 145.635 C 125.231 145.874,125.286 146.246,125.501 146.461 C 125.757 146.717,125.968 146.566,126.109 146.026 C 126.336 145.158,125.838 144.891,125.378 145.635 M123.965 148.533 C 123.388 148.958,123.391 149.063,123.999 149.700 C 124.548 150.275,124.667 150.293,124.667 149.800 C 124.667 149.470,124.472 149.197,124.233 149.194 C 123.995 149.191,124.065 149.020,124.388 148.816 C 124.712 148.611,124.892 148.358,124.788 148.254 C 124.684 148.150,124.314 148.276,123.965 148.533 M122.880 150.880 C 122.302 151.458,122.256 152.000,122.786 152.000 C 122.998 152.000,123.365 151.640,123.600 151.200 C 124.072 150.319,123.635 150.125,122.880 150.880 M114.035 168.158 C 113.658 168.612,113.667 168.719,114.078 168.659 C 114.630 168.578,114.987 168.053,114.690 167.757 C 114.593 167.660,114.298 167.841,114.035 168.158 M107.519 181.311 C 107.405 181.910,107.455 182.400,107.632 182.400 C 108.164 182.400,108.317 181.846,108.014 181.011 C 107.759 180.311,107.704 180.344,107.519 181.311 M105.817 184.772 C 105.544 185.214,106.175 185.692,106.544 185.322 C 106.925 184.942,106.854 184.400,106.424 184.400 C 106.217 184.400,105.944 184.568,105.817 184.772 M101.424 193.413 C 100.996 193.736,100.827 194.000,101.047 194.000 C 101.267 194.000,101.796 193.736,102.224 193.413 C 102.651 193.090,102.820 192.825,102.600 192.825 C 102.380 192.825,101.851 193.090,101.424 193.413 M97.144 201.979 C 96.222 202.741,96.220 202.753,97.072 202.540 C 97.552 202.420,98.041 202.069,98.160 201.761 C 98.446 201.014,98.267 201.053,97.144 201.979 M90.493 215.600 C 90.218 216.040,90.131 216.400,90.300 216.400 C 90.469 216.400,90.832 216.040,91.107 215.600 C 91.382 215.160,91.469 214.800,91.300 214.800 C 91.131 214.800,90.768 215.160,90.493 215.600 M177.830 227.467 C 177.689 227.834,177.737 228.297,177.937 228.497 C 178.154 228.714,178.300 228.447,178.300 227.830 C 178.300 226.631,178.185 226.542,177.830 227.467 M79.169 238.100 C 78.827 239.220,78.918 239.600,79.428 239.177 C 79.738 238.920,79.893 238.550,79.772 238.355 C 79.565 238.020,79.236 237.881,79.169 238.100 M323.200 242.835 C 323.200 243.036,323.590 243.200,324.067 243.200 C 324.543 243.200,324.808 243.075,324.655 242.922 C 324.223 242.489,323.200 242.429,323.200 242.835 M148.109 288.009 C 148.076 288.453,148.218 288.713,148.424 288.585 C 148.879 288.304,148.927 287.200,148.485 287.200 C 148.312 287.200,148.143 287.564,148.109 288.009 " stroke="none" fill="#a02ccc" fill-rule="evenodd"></path></g></svg>